<mxfile host="65bd71144e">
    <diagram id="T9uuaTeBy4bPSP1g8a4x" name="Page-1">
        <mxGraphModel dx="1102" dy="825" grid="1" gridSize="10" guides="1" tooltips="1" connect="1" arrows="1" fold="1" page="1" pageScale="1" pageWidth="827" pageHeight="1169" background="#FFFFFF" math="0" shadow="0">
            <root>
                <mxCell id="0"/>
                <mxCell id="1" parent="0"/>
                <mxCell id="249" value="A" style="rounded=0;whiteSpace=wrap;html=1;fontStyle=0;fontSize=13;" vertex="1" parent="1">
                    <mxGeometry x="120" y="240" width="30" height="30" as="geometry"/>
                </mxCell>
                <mxCell id="250" value="X" style="rounded=0;whiteSpace=wrap;html=1;fontStyle=0;fontSize=13;" vertex="1" parent="1">
                    <mxGeometry x="120" y="270" width="30" height="30" as="geometry"/>
                </mxCell>
                <mxCell id="251" value="X" style="rounded=0;whiteSpace=wrap;html=1;fontStyle=0;fontSize=13;" vertex="1" parent="1">
                    <mxGeometry x="120" y="300" width="30" height="30" as="geometry"/>
                </mxCell>
                <mxCell id="252" value="" style="rounded=0;whiteSpace=wrap;html=1;fontStyle=0;fontSize=13;" vertex="1" parent="1">
                    <mxGeometry x="150" y="240" width="30" height="30" as="geometry"/>
                </mxCell>
                <mxCell id="253" value="B" style="rounded=0;whiteSpace=wrap;html=1;fontStyle=0;fontSize=13;" vertex="1" parent="1">
                    <mxGeometry x="150" y="270" width="30" height="30" as="geometry"/>
                </mxCell>
                <mxCell id="254" value="X" style="rounded=0;whiteSpace=wrap;html=1;fontStyle=0;fontSize=13;" vertex="1" parent="1">
                    <mxGeometry x="150" y="300" width="30" height="30" as="geometry"/>
                </mxCell>
                <mxCell id="255" value="" style="rounded=0;whiteSpace=wrap;html=1;fontStyle=0;fontSize=13;" vertex="1" parent="1">
                    <mxGeometry x="180" y="240" width="30" height="30" as="geometry"/>
                </mxCell>
                <mxCell id="256" value="X" style="rounded=0;whiteSpace=wrap;html=1;fontStyle=0;fontSize=13;" vertex="1" parent="1">
                    <mxGeometry x="180" y="270" width="30" height="30" as="geometry"/>
                </mxCell>
                <mxCell id="257" value="C" style="rounded=0;whiteSpace=wrap;html=1;fontStyle=0;fontSize=13;" vertex="1" parent="1">
                    <mxGeometry x="180" y="300" width="30" height="30" as="geometry"/>
                </mxCell>
                <mxCell id="260" value="D" style="rounded=0;whiteSpace=wrap;html=1;fontStyle=0;fontSize=13;" vertex="1" parent="1">
                    <mxGeometry x="210" y="330" width="30" height="30" as="geometry"/>
                </mxCell>
                <mxCell id="261" value="" style="rounded=0;whiteSpace=wrap;html=1;fontStyle=0;fontSize=13;" vertex="1" parent="1">
                    <mxGeometry x="120" y="330" width="30" height="30" as="geometry"/>
                </mxCell>
                <mxCell id="262" value="" style="rounded=0;whiteSpace=wrap;html=1;fontStyle=0;fontSize=13;" vertex="1" parent="1">
                    <mxGeometry x="150" y="330" width="30" height="30" as="geometry"/>
                </mxCell>
                <mxCell id="263" value="X" style="rounded=0;whiteSpace=wrap;html=1;fontStyle=0;fontSize=13;" vertex="1" parent="1">
                    <mxGeometry x="180" y="330" width="30" height="30" as="geometry"/>
                </mxCell>
                <mxCell id="264" value="" style="rounded=0;whiteSpace=wrap;html=1;fontStyle=0;fontSize=13;" vertex="1" parent="1">
                    <mxGeometry x="210" y="240" width="30" height="30" as="geometry"/>
                </mxCell>
                <mxCell id="265" value="" style="rounded=0;whiteSpace=wrap;html=1;fontStyle=0;fontSize=13;" vertex="1" parent="1">
                    <mxGeometry x="210" y="270" width="30" height="30" as="geometry"/>
                </mxCell>
                <mxCell id="266" value="" style="rounded=0;whiteSpace=wrap;html=1;fontStyle=0;fontSize=13;" vertex="1" parent="1">
                    <mxGeometry x="210" y="300" width="30" height="30" as="geometry"/>
                </mxCell>
                <mxCell id="267" value="0" style="rounded=0;whiteSpace=wrap;html=1;fontStyle=0;fontSize=13;" vertex="1" parent="1">
                    <mxGeometry x="320" y="240" width="30" height="30" as="geometry"/>
                </mxCell>
                <mxCell id="268" value="1" style="rounded=0;whiteSpace=wrap;html=1;fontStyle=0;fontSize=13;" vertex="1" parent="1">
                    <mxGeometry x="320" y="270" width="30" height="30" as="geometry"/>
                </mxCell>
                <mxCell id="269" value="1" style="rounded=0;whiteSpace=wrap;html=1;fontStyle=0;fontSize=13;" vertex="1" parent="1">
                    <mxGeometry x="320" y="300" width="30" height="30" as="geometry"/>
                </mxCell>
                <mxCell id="270" value="0" style="rounded=0;whiteSpace=wrap;html=1;fontStyle=0;fontSize=13;" vertex="1" parent="1">
                    <mxGeometry x="350" y="240" width="30" height="30" as="geometry"/>
                </mxCell>
                <mxCell id="271" value="0" style="rounded=0;whiteSpace=wrap;html=1;fontStyle=0;fontSize=13;" vertex="1" parent="1">
                    <mxGeometry x="350" y="270" width="30" height="30" as="geometry"/>
                </mxCell>
                <mxCell id="272" value="1" style="rounded=0;whiteSpace=wrap;html=1;fontStyle=0;fontSize=13;" vertex="1" parent="1">
                    <mxGeometry x="350" y="300" width="30" height="30" as="geometry"/>
                </mxCell>
                <mxCell id="273" value="0" style="rounded=0;whiteSpace=wrap;html=1;fontStyle=0;fontSize=13;" vertex="1" parent="1">
                    <mxGeometry x="380" y="240" width="30" height="30" as="geometry"/>
                </mxCell>
                <mxCell id="274" value="1" style="rounded=0;whiteSpace=wrap;html=1;fontStyle=0;fontSize=13;" vertex="1" parent="1">
                    <mxGeometry x="380" y="270" width="30" height="30" as="geometry"/>
                </mxCell>
                <mxCell id="275" value="0" style="rounded=0;whiteSpace=wrap;html=1;fontStyle=0;fontSize=13;" vertex="1" parent="1">
                    <mxGeometry x="380" y="300" width="30" height="30" as="geometry"/>
                </mxCell>
                <mxCell id="276" value="0" style="rounded=0;whiteSpace=wrap;html=1;fontStyle=0;fontSize=13;" vertex="1" parent="1">
                    <mxGeometry x="410" y="330" width="30" height="30" as="geometry"/>
                </mxCell>
                <mxCell id="277" value="0" style="rounded=0;whiteSpace=wrap;html=1;fontStyle=0;fontSize=13;" vertex="1" parent="1">
                    <mxGeometry x="320" y="330" width="30" height="30" as="geometry"/>
                </mxCell>
                <mxCell id="278" value="0" style="rounded=0;whiteSpace=wrap;html=1;fontStyle=0;fontSize=13;" vertex="1" parent="1">
                    <mxGeometry x="350" y="330" width="30" height="30" as="geometry"/>
                </mxCell>
                <mxCell id="279" value="1" style="rounded=0;whiteSpace=wrap;html=1;fontStyle=0;fontSize=13;" vertex="1" parent="1">
                    <mxGeometry x="380" y="330" width="30" height="30" as="geometry"/>
                </mxCell>
                <mxCell id="280" value="0" style="rounded=0;whiteSpace=wrap;html=1;fontStyle=0;fontSize=13;" vertex="1" parent="1">
                    <mxGeometry x="410" y="240" width="30" height="30" as="geometry"/>
                </mxCell>
                <mxCell id="281" value="0" style="rounded=0;whiteSpace=wrap;html=1;fontStyle=0;fontSize=13;" vertex="1" parent="1">
                    <mxGeometry x="410" y="270" width="30" height="30" as="geometry"/>
                </mxCell>
                <mxCell id="282" value="0" style="rounded=0;whiteSpace=wrap;html=1;fontStyle=0;fontSize=13;" vertex="1" parent="1">
                    <mxGeometry x="410" y="300" width="30" height="30" as="geometry"/>
                </mxCell>
                <mxCell id="284" value="0" style="rounded=0;whiteSpace=wrap;html=1;fontStyle=0;fontSize=13;" vertex="1" parent="1">
                    <mxGeometry x="520" y="240" width="30" height="30" as="geometry"/>
                </mxCell>
                <mxCell id="285" value="1" style="rounded=0;whiteSpace=wrap;html=1;fontStyle=0;fontSize=13;" vertex="1" parent="1">
                    <mxGeometry x="520" y="270" width="30" height="30" as="geometry"/>
                </mxCell>
                <mxCell id="286" value="1" style="rounded=0;whiteSpace=wrap;html=1;fontStyle=0;fontSize=13;" vertex="1" parent="1">
                    <mxGeometry x="520" y="300" width="30" height="30" as="geometry"/>
                </mxCell>
                <mxCell id="287" value="0" style="rounded=0;whiteSpace=wrap;html=1;fontStyle=0;fontSize=13;" vertex="1" parent="1">
                    <mxGeometry x="550" y="240" width="30" height="30" as="geometry"/>
                </mxCell>
                <mxCell id="288" value="1" style="rounded=0;whiteSpace=wrap;html=1;fontStyle=0;fontSize=13;fillColor=#f8cecc;strokeColor=#b85450;" vertex="1" parent="1">
                    <mxGeometry x="550" y="270" width="30" height="30" as="geometry"/>
                </mxCell>
                <mxCell id="289" value="0" style="rounded=0;whiteSpace=wrap;html=1;fontStyle=0;fontSize=13;" vertex="1" parent="1">
                    <mxGeometry x="550" y="300" width="30" height="30" as="geometry"/>
                </mxCell>
                <mxCell id="290" value="0" style="rounded=0;whiteSpace=wrap;html=1;fontStyle=0;fontSize=13;" vertex="1" parent="1">
                    <mxGeometry x="580" y="240" width="30" height="30" as="geometry"/>
                </mxCell>
                <mxCell id="291" value="0" style="rounded=0;whiteSpace=wrap;html=1;fontStyle=0;fontSize=13;" vertex="1" parent="1">
                    <mxGeometry x="580" y="270" width="30" height="30" as="geometry"/>
                </mxCell>
                <mxCell id="292" value="1" style="rounded=0;whiteSpace=wrap;html=1;fontStyle=0;fontSize=13;fillColor=#f8cecc;strokeColor=#b85450;" vertex="1" parent="1">
                    <mxGeometry x="580" y="300" width="30" height="30" as="geometry"/>
                </mxCell>
                <mxCell id="293" value="0" style="rounded=0;whiteSpace=wrap;html=1;fontStyle=0;fontSize=13;" vertex="1" parent="1">
                    <mxGeometry x="610" y="330" width="30" height="30" as="geometry"/>
                </mxCell>
                <mxCell id="294" value="1" style="rounded=0;whiteSpace=wrap;html=1;fontStyle=0;fontSize=13;" vertex="1" parent="1">
                    <mxGeometry x="520" y="330" width="30" height="30" as="geometry"/>
                </mxCell>
                <mxCell id="295" value="1" style="rounded=0;whiteSpace=wrap;html=1;fontStyle=0;fontSize=13;" vertex="1" parent="1">
                    <mxGeometry x="550" y="330" width="30" height="30" as="geometry"/>
                </mxCell>
                <mxCell id="296" value="0" style="rounded=0;whiteSpace=wrap;html=1;fontStyle=0;fontSize=13;" vertex="1" parent="1">
                    <mxGeometry x="580" y="330" width="30" height="30" as="geometry"/>
                </mxCell>
                <mxCell id="297" value="0" style="rounded=0;whiteSpace=wrap;html=1;fontStyle=0;fontSize=13;" vertex="1" parent="1">
                    <mxGeometry x="610" y="240" width="30" height="30" as="geometry"/>
                </mxCell>
                <mxCell id="298" value="0" style="rounded=0;whiteSpace=wrap;html=1;fontStyle=0;fontSize=13;" vertex="1" parent="1">
                    <mxGeometry x="610" y="270" width="30" height="30" as="geometry"/>
                </mxCell>
                <mxCell id="299" value="0" style="rounded=0;whiteSpace=wrap;html=1;fontStyle=0;fontSize=13;" vertex="1" parent="1">
                    <mxGeometry x="610" y="300" width="30" height="30" as="geometry"/>
                </mxCell>
                <mxCell id="301" value="binary" style="endArrow=block;html=1;startSize=3;endSize=3;endFill=1;" edge="1" parent="1">
                    <mxGeometry x="0.0095" width="50" height="50" relative="1" as="geometry">
                        <mxPoint x="250" y="300" as="sourcePoint"/>
                        <mxPoint x="310" y="300" as="targetPoint"/>
                        <mxPoint as="offset"/>
                    </mxGeometry>
                </mxCell>
                <mxCell id="302" value="square" style="endArrow=block;html=1;startSize=3;endSize=3;endFill=1;" edge="1" parent="1">
                    <mxGeometry width="50" height="50" relative="1" as="geometry">
                        <mxPoint x="450" y="300" as="sourcePoint"/>
                        <mxPoint x="510" y="300" as="targetPoint"/>
                    </mxGeometry>
                </mxCell>
                <mxCell id="307" style="edgeStyle=none;html=1;exitX=1;exitY=0.25;exitDx=0;exitDy=0;entryX=0;entryY=0.5;entryDx=0;entryDy=0;endArrow=block;endFill=1;startSize=3;endSize=3;" edge="1" parent="1" source="303" target="304">
                    <mxGeometry relative="1" as="geometry"/>
                </mxCell>
                <mxCell id="308" style="edgeStyle=none;html=1;exitX=1;exitY=0.75;exitDx=0;exitDy=0;entryX=0;entryY=0.5;entryDx=0;entryDy=0;endArrow=block;endFill=1;startSize=3;endSize=3;" edge="1" parent="1" source="303" target="305">
                    <mxGeometry relative="1" as="geometry"/>
                </mxCell>
                <mxCell id="303" value="A" style="rounded=0;whiteSpace=wrap;html=1;fontStyle=0;fontSize=13;" vertex="1" parent="1">
                    <mxGeometry x="80" y="120" width="40" height="30" as="geometry"/>
                </mxCell>
                <mxCell id="311" style="edgeStyle=none;html=1;exitX=0.25;exitY=1;exitDx=0;exitDy=0;entryX=0.25;entryY=0;entryDx=0;entryDy=0;endArrow=block;endFill=1;startSize=3;endSize=3;fillColor=#f8cecc;strokeColor=#b85450;" edge="1" parent="1" source="304" target="305">
                    <mxGeometry relative="1" as="geometry"/>
                </mxCell>
                <mxCell id="304" value="B" style="rounded=0;whiteSpace=wrap;html=1;fontStyle=0;fontSize=13;fillColor=#f8cecc;strokeColor=#b85450;" vertex="1" parent="1">
                    <mxGeometry x="160" y="80" width="40" height="30" as="geometry"/>
                </mxCell>
                <mxCell id="310" style="edgeStyle=none;html=1;exitX=1;exitY=0.5;exitDx=0;exitDy=0;entryX=0;entryY=0.75;entryDx=0;entryDy=0;endArrow=block;endFill=1;startSize=3;endSize=3;" edge="1" parent="1" source="305" target="306">
                    <mxGeometry relative="1" as="geometry"/>
                </mxCell>
                <mxCell id="312" style="edgeStyle=none;html=1;exitX=0.75;exitY=0;exitDx=0;exitDy=0;entryX=0.75;entryY=1;entryDx=0;entryDy=0;endArrow=block;endFill=1;startSize=3;endSize=3;fillColor=#f8cecc;strokeColor=#b85450;" edge="1" parent="1" source="305" target="304">
                    <mxGeometry relative="1" as="geometry"/>
                </mxCell>
                <mxCell id="305" value="C" style="rounded=0;whiteSpace=wrap;html=1;fontStyle=0;fontSize=13;fillColor=#f8cecc;strokeColor=#b85450;" vertex="1" parent="1">
                    <mxGeometry x="160" y="150" width="40" height="30" as="geometry"/>
                </mxCell>
                <mxCell id="306" value="D" style="rounded=0;whiteSpace=wrap;html=1;fontStyle=0;fontSize=13;" vertex="1" parent="1">
                    <mxGeometry x="240" y="120" width="40" height="30" as="geometry"/>
                </mxCell>
                <mxCell id="313" value="DSM" style="endArrow=block;html=1;startSize=3;endSize=3;endFill=1;" edge="1" parent="1">
                    <mxGeometry x="0.0095" width="50" height="50" relative="1" as="geometry">
                        <mxPoint x="180" y="190" as="sourcePoint"/>
                        <mxPoint x="180" y="230" as="targetPoint"/>
                        <mxPoint as="offset"/>
                    </mxGeometry>
                </mxCell>
            </root>
        </mxGraphModel>
    </diagram>
</mxfile>